<svg id="Layer_0_Image" data-name="Layer 0 Image" xmlns="http://www.w3.org/2000/svg" viewBox="0 0 163.86 153.32"><title>logo-draft</title><path d="M62.67,91.8q0-24.93,0-49.86c0-7.39.25-15.46,5-21.12a23.64,23.64,0,0,1,9.77-6.43c6.71-2.61,14.29-3.54,21.13-1.3A27.62,27.62,0,0,1,113.93,26.4a37.26,37.26,0,0,1,4,20.15,6.12,6.12,0,0,1-.91,3.26,6,6,0,0,1-2.25,1.65A32.29,32.29,0,0,1,107.35,54a4.09,4.09,0,0,1-1.93.09c-1.69-.46-2.17-2.6-2.21-4.34-.13-5.48,1-11.22-1.2-16.26a13.47,13.47,0,0,0-24.47-.67c-3.06,6.2-1.35,13.9-1.42,20.53,0,.57,0,1.15.07,1.72-.1,4.07.05,8.14-.09,12.2,0,.58,0,1.17,0,1.75.1,4.1.1,8.2,0,12.29,0,.88,0,1.77,0,2.65-.12,3.54-1,4.57-.51,9.41" transform="translate(-7.7 -11.82)" fill="#8fc60a"/><path d="M81.45,68.62q24.93-8.69,49.87-17.34c7.4-2.57,15.54-5.16,22.71-2.81a22.75,22.75,0,0,1,9.52,6.65c4.74,5.2,8.08,11.78,8,18.79-.07,6.75-3.37,13.49-8.45,18.6a42.79,42.79,0,0,1-18.89,10.62,7,7,0,0,1-3.55.31,5.8,5.8,0,0,1-2.36-1.48,29.33,29.33,0,0,1-4.93-5.82,3.6,3.6,0,0,1-.7-1.73c-.08-1.69,1.91-2.88,3.64-3.52,5.43-2,11.52-3,15.88-6.76,4.07-3.47,5.84-9.08,4.36-13.79a13.19,13.19,0,0,0-11.45-8.72c-7.17-.63-14.32,3.61-21,5.86-.57.21-1.14.42-1.7.66-4.1,1.33-8.12,2.88-12.23,4.17l-1.75.62c-4.07,1.51-8.16,2.95-12.3,4.27-.89.3-1.77.61-2.65.93-3.58,1.13-4.89.67-9.57,2.81" transform="translate(-7.7 -11.82)" fill="#f9a704"/><path d="M109,107.65q-16.24,20.82-32.51,41.61c-4.82,6.17-10.26,12.76-17.56,14.67a22.75,22.75,0,0,1-11.61-.43c-6.8-1.8-13.17-5.52-16.91-11.45-3.6-5.71-4.48-13.16-3-20.21A42.79,42.79,0,0,1,37.5,112.68a7,7,0,0,1,2.81-2.19,5.8,5.8,0,0,1,2.78,0,29.33,29.33,0,0,1,7.3,2.22,3.6,3.6,0,0,1,1.53,1.07c1,1.38,0,3.45-1.15,4.94-3.47,4.65-8,8.81-9.68,14.29-1.53,5.12,0,10.8,3.81,13.95A13.19,13.19,0,0,0,59.26,148c6.36-3.36,10.08-10.8,14.46-16.3.37-.48.73-1,1.07-1.48,2.72-3.34,5.26-6.82,8-10.14l1.14-1.47q3.9-5.22,8-10.26.87-1.1,1.73-2.21c2.39-2.89,3.74-3.22,6.52-7.55" transform="translate(-7.7 -11.82)" fill="#f9a704"/><path d="M111.93,76.86Q128,97.8,144.06,118.77c4.76,6.22,9.78,13.13,9.8,20.68a22.75,22.75,0,0,1-3.33,11.13c-3.45,6.13-8.64,11.37-15.32,13.5-6.43,2.05-13.86,1-20.31-2.18a42.79,42.79,0,0,1-16-14.6A7,7,0,0,1,97.47,144a5.8,5.8,0,0,1,.66-2.71,29.33,29.33,0,0,1,4-6.51,3.6,3.6,0,0,1,1.42-1.21c1.58-.61,3.33.91,4.49,2.35,3.63,4.52,6.51,10,11.4,13,4.57,2.77,10.46,2.69,14.46-.19a13.19,13.19,0,0,0,4.69-13.61c-1.65-7-7.92-12.47-12.15-18.08-.38-.48-.76-1-1.16-1.41-2.55-3.47-5.29-6.8-7.8-10.3l-1.14-1.47q-4.07-5.08-7.92-10.33c-.56-.75-1.13-1.49-1.71-2.23-2.19-3-2.17-4.43-5.67-8.2" transform="translate(-7.7 -11.82)" fill="#055f82"/><path d="M78.36,118Q53.89,108.1,29.42,98.17c-7.26-2.94-15.09-6.36-18.93-12.85A22.75,22.75,0,0,1,7.71,74c-.14-7,1.68-14.18,6.36-19.4,4.51-5,11.43-7.92,18.61-8.42a42.79,42.79,0,0,1,21.21,4.46,7,7,0,0,1,2.87,2.1,5.8,5.8,0,0,1,.8,2.67,29.33,29.33,0,0,1-.13,7.63,3.6,3.6,0,0,1-.61,1.76c-1.06,1.33-3.33.91-5.06.25C46.35,63,41.1,59.78,35.37,59.7,30,59.64,25,62.69,23,67.21a13.19,13.19,0,0,0,2.86,14.1c5,5.2,13.15,6.73,19.64,9.42.57.22,1.13.44,1.71.62,4,1.7,8,3.18,11.95,4.92L60.9,97C65,98.5,69,100.12,73,101.85c.86.36,1.73.71,2.6,1.05,3.43,1.51,4.12,2.71,9.05,4.19" transform="translate(-7.7 -11.82)" fill="#055f82"/></svg>